<svg width="28" height="28" xmlns="http://www.w3.org/2000/svg">
    <g fill="none" fill-rule="evenodd">
        <path d="M0 0h28v28H0z"/>
        <path d="M14 7c3.982 0 7.614 2.005 10.897 6.015.44.537.467 1.295.082 1.86l-.082.11-.235.283C21.44 19.09 17.887 21 14 21c-3.982 0-7.614-2.005-10.897-6.015a1.556 1.556 0 0 1-.082-1.86l.082-.11.235-.283C6.56 8.91 10.113 7 14 7zm0 1.556c-3.3 0-6.36 1.596-9.227 4.891l-.238.279-.228.274.231.279c2.94 3.483 6.075 5.165 9.462 5.165 3.3 0 6.36-1.596 9.227-4.891l.238-.279.228-.274-.231-.279c-2.94-3.483-6.075-5.165-9.462-5.165zm0 1.555a3.889 3.889 0 1 1 0 7.778 3.889 3.889 0 0 1 0-7.778zm0 1.556a2.333 2.333 0 1 0 0 4.666 2.333 2.333 0 0 0 0-4.666z" fill="#FFF"/>
    </g>
</svg>
