<svg xmlns="http://www.w3.org/2000/svg" width="32" height="32" viewBox="0 0 32 32">
    <g fill="none" fill-rule="evenodd">
        <g>
            <g>
                <g>
                    <g>
                        <g>
                            <path d="M0 0H32V32H0z" transform="translate(-362 -660) translate(332 595) translate(0 35) translate(20 20) translate(10 10)"/>
                            <path fill="#9D9D9C" fill-rule="nonzero" d="M26.667 3.556c1.963 0 3.555 1.591 3.555 3.555V24.89c0 1.964-1.592 3.555-3.555 3.555H5.333c-1.963 0-3.555-1.591-3.555-3.555V7.11c0-1.964 1.592-3.555 3.555-3.555zm0 1.777H5.333c-.982 0-1.777.796-1.777 1.778V24.89c0 .982.795 1.778 1.777 1.778h21.334c.982 0 1.777-.796 1.777-1.778V7.11c0-.982-.795-1.778-1.777-1.778zm-12.278 5.778c.252 0 .454.079.607.236.152.157.229.353.229.586v7.79l-.01.136c-.025.175-.1.325-.226.451-.157.157-.366.236-.627.236-.216 0-.407-.079-.573-.236l-.076-.082c-.115-.141-.173-.31-.173-.504v-3.14h-4.3v3.14l-.007.113c-.023.184-.106.342-.249.473-.17.157-.368.236-.593.236-.251 0-.454-.079-.606-.236-.153-.157-.23-.353-.23-.586v-7.79l.007-.114c.023-.184.101-.342.236-.473.162-.157.369-.236.62-.236.216 0 .407.079.573.236l.076.082c.116.141.173.31.173.504v3.1h4.3v-3.1l.007-.113c.024-.184.107-.342.249-.473.17-.157.368-.236.593-.236zm6.9 0l.274.008c.537.03 1.02.148 1.452.356.503.243.928.582 1.274 1.018.346.435.606.939.782 1.51.175.57.262 1.179.262 1.825 0 .872-.157 1.665-.471 2.38-.315.714-.77 1.282-1.368 1.704-.598.423-1.333.634-2.204.634h-3.221l-.136-.01c-.175-.025-.325-.1-.45-.226-.158-.157-.237-.353-.237-.586v-7.79l.01-.136c.025-.175.1-.325.226-.451.158-.157.353-.236.587-.236h3.22zm-.134 1.55h-2.224v6.335h2.224l.208-.007c.472-.032.866-.176 1.18-.431.36-.292.623-.679.789-1.16.166-.48.25-1.003.25-1.57 0-.422-.048-.824-.142-1.206-.095-.382-.24-.719-.438-1.01-.198-.293-.45-.524-.755-.695-.306-.17-.67-.256-1.092-.256z" transform="translate(-362 -660) translate(332 595) translate(0 35) translate(20 20) translate(10 10)"/>
                        </g>
                    </g>
                </g>
            </g>
        </g>
    </g>
</svg>
