<svg xmlns="http://www.w3.org/2000/svg" width="96" height="96" viewBox="0 0 96 96">
    <g fill="none" fill-rule="evenodd">
        <g fill="#9D9D9C" fill-rule="nonzero">
            <g>
                <g>
                    <g>
                        <g>
                            <path d="M89 3c2.761 0 5 2.239 5 5v80c0 2.761-2.239 5-5 5H7c-2.761 0-5-2.239-5-5V8c0-2.761 2.239-5 5-5h82zm0 2.5H7c-1.325 0-2.41 1.032-2.495 2.336L4.5 8v80c0 1.325 1.032 2.41 2.336 2.495L7 90.5h82c1.325 0 2.41-1.032 2.495-2.336L91.5 88V8c0-1.325-1.032-2.41-2.336-2.495L89 5.5z" transform="translate(-672 -792) translate(332 595) translate(0 35) translate(262 162) translate(78)"/>
                            <path d="M85 9c1.657 0 3 1.343 3 3v57c0 1.657-1.343 3-3 3H11c-1.657 0-3-1.343-3-3V12c0-1.657 1.343-3 3-3h74zm0 2.5H11c-.245 0-.45.177-.492.41L10.5 12v57c0 .245.177.45.41.492l.09.008h74c.245 0 .45-.177.492-.41L85.5 69V12c0-.245-.177-.45-.41-.492L85 11.5z" transform="translate(-672 -792) translate(332 595) translate(0 35) translate(262 162) translate(78)"/>
                            <path d="M40 23.623c.377 0 .747.106 1.066.307l21.246 13.378c.935.588 1.215 1.823.627 2.758-.16.253-.374.467-.627.626L41.066 54.07c-.935.588-2.17.308-2.758-.627-.201-.32-.308-.689-.308-1.066V25.623c0-1.105.895-2 2-2zm.499 2.904v24.945L60.306 39 40.499 26.527z" transform="translate(-672 -792) translate(332 595) translate(0 35) translate(262 162) translate(78)"/>
                        </g>
                    </g>
                </g>
            </g>
        </g>
    </g>
</svg>
