<svg width="140" height="44" viewBox="0 0 140 44" xmlns="http://www.w3.org/2000/svg">
    <g fill="none" fill-rule="evenodd">
        <path d="M128.09 12.414c.23 0 .348-.098.348-.304 0-.205-.113-.303-.372-.303h-.069v.602h.093v.005zm.808 1.19h-.367l-.534-.784v.783h-.298v-2.08h.352c.22 0 .343.03.46.113.147.098.23.274.23.48 0 .313-.176.518-.48.572l.637.915zm-1.855-2.061c-.245.269-.387.631-.387.988a1.5 1.5 0 0 0 1.503 1.513c.822 0 1.498-.675 1.498-1.503 0-.812-.676-1.498-1.479-1.498-.455 0-.837.167-1.135.5zm2.907.998a1.794 1.794 0 1 1-3.588-.01c0-.988.813-1.776 1.821-1.776.965 0 1.767.817 1.767 1.786zM9.79 19.35c.558.514 1.248.94 2.066 1.273.817.333 1.625.5 2.428.5.622 0 1.2-.128 1.738-.378s.842-.66.92-1.238c.108-.622-.073-1.092-.534-1.41-.46-.318-1.243-.759-2.34-1.326-1.096-.568-1.894-1.18-2.393-1.84-.5-.662-.666-1.562-.5-2.713.123-.68.377-1.307.774-1.884a5.153 5.153 0 0 1 1.43-1.41c1.15-.725 2.525-1.092 4.13-1.092.696 0 1.347.054 1.954.157a7.66 7.66 0 0 1 1.747.524l-.43 2.663c-.97-.71-1.978-1.068-3.02-1.068-.53 0-1.009.118-1.43.353-.426.235-.68.602-.773 1.101-.079.47.034.818.328 1.043.293.225.807.509 1.532.842a16.94 16.94 0 0 1 1.66.852c.44.264.802.548 1.09.851.955.984 1.332 2.13 1.136 3.427-.244 1.542-1.042 2.77-2.408 3.676-1.209.788-2.741 1.18-4.587 1.18-1.527 0-2.951-.274-4.268-.818l-.25-3.265zM25.9 20.427c-.127.788-.186 1.366-.181 1.718.005.358.196.671.563.935v.06h-5.14v-.06c.46-.264.744-.577.861-.925.113-.347.235-.925.363-1.728L23.51 13.3c.127-.827.186-1.42.172-1.777-.015-.357-.196-.656-.554-.896v-.058h5.14v.058c-.445.255-.734.573-.861.955-.128.382-.25.954-.363 1.718L25.9 20.427zM31.573 20.98c.431.216 1.082.323 1.949.323 1.067 0 2.016-.279 2.844-.841l-1.146 2.672h-8.326v-.058c.46-.265.744-.578.861-.926.113-.347.235-.925.362-1.728l1.146-7.127c.127-.827.186-1.42.171-1.777-.014-.357-.196-.656-.553-.896v-.053h5.14v.058c-.23.128-.426.304-.592.534-.167.23-.28.44-.343.631a4.67 4.67 0 0 0-.162.661c-.044.25-.093.539-.141.871l-1.21 7.656zM44.947 12.997c.254-.51.401-.882.44-1.107.089-.5-.122-.915-.631-1.263v-.058h3.417v.058l-6.457 12.914c-1.136-.382-1.885-.7-2.257-.955-.332-.215-.577-.426-.744-.631a2.452 2.452 0 0 1-.391-.69 6.06 6.06 0 0 1-.26-.975l-1.644-8.003c-.152-.779-.377-1.332-.671-1.665v-.053h4.317v.058l-.039.093c-.039.304.044 1.023.25 2.159l1.317 7.03 3.353-6.912zM51.002 21.02c.46.19 1.106.283 1.948.283 1.288 0 2.272-.347 2.962-1.052h.098l-1.224 2.883h-8.464v-.058c.46-.265.744-.578.862-.926.113-.347.235-.925.362-1.728l1.146-7.142c.127-.827.186-1.414.17-1.767-.014-.347-.195-.646-.552-.886v-.058h6.687c.396 0 .67-.035.822-.098h.059l-.44 2.77h-.06c-.166-.382-.426-.612-.783-.685-.357-.078-.896-.113-1.625-.113h-.612l-.494 3.094h1.777c.332 0 .572-.03.724-.098h.098l-.421 2.673h-.098c-.064-.333-.23-.529-.504-.592-.274-.064-.69-.098-1.253-.098h-.632l-.553 3.598zM61.908 12.424l-.69 4.317a3.018 3.018 0 0 0 1.625-.861c.46-.46.735-.98.823-1.567.112-.724-.05-1.268-.495-1.625-.215-.176-.572-.27-1.072-.27h-.19v.006zm-1.258 7.984a18.793 18.793 0 0 0-.2 1.253c-.02.21.005.455.068.734.064.28.23.51.495.685v.06h-5.14v-.06c.445-.264.734-.592.866-.974s.26-.95.372-1.698l1.126-7.108c.127-.827.186-1.42.171-1.777-.014-.357-.195-.656-.553-.896v-.058h5.654c.597 0 1.072.02 1.415.058.342.04.705.167 1.086.382.495.294.852.685 1.073 1.185.215.494.269 1.072.151 1.718-.088.66-.391 1.263-.905 1.796a5.12 5.12 0 0 1-1.846 1.224l1.68 3.804c.46 1.042.949 1.81 1.468 2.29l-2.653.172c-.7.04-1.21-.02-1.528-.181-.318-.157-.597-.524-.842-1.097l-1.546-4.165-.412 2.653zM82.556 11.313c-1.043-.789-2.247-1.18-3.613-1.18-1.453 0-2.56.49-3.314 1.464-.758.974-1.263 2.237-1.522 3.779-.26 1.65-.054 3.01.612 4.077.666 1.067 1.801 1.6 3.407 1.6 1.424 0 3.133-.494 5.13-1.477L81.6 22.89c-1.375.362-2.912.543-4.61.543-1.274 0-2.36-.142-3.27-.421-.906-.28-1.738-.793-2.497-1.532-1.542-1.498-2.125-3.476-1.748-5.928a8.846 8.846 0 0 1 1.136-3.133 8.787 8.787 0 0 1 2.247-2.565 9.094 9.094 0 0 1 3.098-1.532c1.16-.323 2.34-.49 3.554-.49l3.383.294-.338 3.187zM88.738 12.424l-.69 4.317a3.018 3.018 0 0 0 1.625-.861c.46-.46.735-.98.823-1.567.117-.724-.05-1.268-.495-1.625-.215-.176-.572-.27-1.067-.27h-.196v.006zm-1.262 7.984a18.793 18.793 0 0 0-.201 1.253c-.02.21.005.455.068.734.064.28.23.51.5.685v.06h-5.14v-.06c.445-.264.734-.592.871-.974.132-.382.26-.95.372-1.698l1.126-7.108c.127-.827.186-1.42.171-1.777-.014-.357-.195-.656-.553-.896v-.058h5.654c.597 0 1.072.02 1.415.058.342.04.705.167 1.086.382.5.294.852.685 1.072 1.185.216.494.27 1.072.152 1.718-.088.66-.391 1.263-.905 1.796a5.12 5.12 0 0 1-1.846 1.224l1.68 3.804c.46 1.042.949 1.81 1.468 2.29l-2.653.172c-.7.04-1.21-.02-1.528-.181-.318-.157-.597-.524-.842-1.097l-1.546-4.165-.421 2.653zM99.224 21.02c.46.19 1.106.283 1.948.283 1.287 0 2.271-.347 2.962-1.052h.093l-1.224 2.883h-8.464v-.058c.46-.265.744-.578.862-.926.112-.347.235-.925.362-1.728l1.145-7.142c.128-.827.186-1.414.172-1.767-.015-.347-.196-.646-.553-.886v-.058h6.686c.397 0 .67-.035.823-.098h.058l-.44 2.77h-.059c-.166-.382-.426-.612-.783-.685-.357-.078-.896-.113-1.625-.113h-.612l-.495 3.094h1.777c.333 0 .573-.03.725-.098h.098l-.421 2.673h-.098c-.064-.333-.235-.529-.504-.592-.274-.064-.69-.098-1.254-.098h-.631l-.548 3.598zM104.535 19.948c.47.435 1.052.788 1.738 1.072.69.279 1.37.42 2.046.42.524 0 1.008-.102 1.464-.313.45-.21.71-.558.773-1.042.088-.524-.059-.916-.45-1.185-.387-.27-1.043-.641-1.968-1.116-.925-.48-1.596-.994-2.017-1.547-.421-.553-.563-1.317-.421-2.281a4.024 4.024 0 0 1 .651-1.586 4.264 4.264 0 0 1 1.204-1.185c.97-.612 2.125-.915 3.476-.915.587 0 1.135.044 1.645.132.509.088.998.235 1.468.44l-.362 2.238c-.813-.597-1.665-.896-2.54-.896-.446 0-.848.098-1.205.294-.357.195-.573.504-.651.925-.064.396.03.69.279.88.25.192.68.427 1.287.706.558.254 1.024.494 1.396.714.367.226.675.46.915.715.803.827 1.12 1.792.954 2.883-.205 1.298-.876 2.33-2.026 3.094-1.018.66-2.306.994-3.857.994a9.374 9.374 0 0 1-3.593-.686l-.206-2.755zM120.64 20.369c-.103.7-.137 1.243-.103 1.634.03.392.2.75.504 1.082v.06h-5.179v-.06c.446-.264.735-.592.872-.974.132-.382.259-.95.372-1.698l1.204-7.68c-.206-.05-.514-.08-.935-.08-.754 0-1.508.236-2.272.706l-.151.093 1.224-2.942.342.059h8.865l-1.106 2.883c-.152-.558-.632-.842-1.434-.842-.382 0-.715.039-.994.112l-1.21 7.647z" fill="#FFF" fill-rule="nonzero"/>
        <g fill="#FFF" fill-rule="nonzero">
            <path d="M40.194 28.02h1.219l-2.1 2.295 2.212 2.673h-1.273l-1.767-2.232-.117.117v2.115h-.97V28.02h.97v2.1zM44.159 32.988h-.97V28.02h.97zM46.93 32.988v-4.126h-1.112v-.842h3.197v.842h-1.116v4.126z"/>
        </g>
        <path d="M54.12 29.351c-.401-.396-.754-.558-1.214-.558-.915 0-1.625.754-1.625 1.728 0 .97.705 1.689 1.645 1.689.46 0 .798-.157 1.19-.544v1.141a2.64 2.64 0 0 1-1.215.289c-1.458 0-2.618-1.131-2.618-2.57a2.612 2.612 0 0 1 3.832-2.316v1.141h.005z" fill="#FFF" fill-rule="nonzero"/>
        <g fill="#FFF" fill-rule="nonzero">
            <path d="M59.23 29.943V28.02h.97v4.968h-.97v-2.203h-2.1v2.203h-.968V28.02h.969v1.923zM63.352 28.862v1.1h1.714v.843h-1.714v1.341h1.782v.842h-2.746V28.02h2.746v.842zM67.112 27.907h.67l3.026 3.456V28.02h.969v5.066h-.67L68.08 29.63v3.358h-.97v-5.081zM77.45 32.988v-4.126h-1.11v-.842h3.196v.842H78.42v4.126z"/>
        </g>
        <g fill="#FFF" fill-rule="nonzero">
            <path d="M86.13 30.506c0 1.459-1.17 2.59-2.683 2.59-1.488 0-2.629-1.14-2.629-2.629 0-1.415 1.19-2.56 2.668-2.56 1.478 0 2.643 1.14 2.643 2.6zm-4.313-.02c0 .96.739 1.729 1.66 1.729.91 0 1.654-.769 1.654-1.714 0-.944-.744-1.703-1.66-1.703-.9-.005-1.654.764-1.654 1.689zM93.124 30.506c0 1.459-1.17 2.59-2.682 2.59-1.488 0-2.629-1.14-2.629-2.629 0-1.415 1.19-2.56 2.668-2.56 1.478 0 2.643 1.14 2.643 2.6zm-4.312-.02c0 .96.739 1.729 1.66 1.729.91 0 1.654-.769 1.654-1.714 0-.944-.744-1.703-1.66-1.703-.905-.005-1.654.764-1.654 1.689zM96.027 32.146h1.528v.842h-2.497V28.02h.97z"/>
        </g>
        <path d="M101.838 29.15c-.255-.284-.49-.401-.803-.401-.397 0-.7.245-.7.553 0 .27.171.411.754.627.548.2.768.313.989.499.288.245.44.602.44 1.043 0 .974-.7 1.64-1.728 1.64-.714 0-1.258-.3-1.703-.945l.626-.602c.225.426.597.66 1.043.66.44 0 .768-.298.768-.7 0-.2-.088-.372-.269-.499-.098-.073-.284-.147-.69-.298-.896-.319-1.224-.686-1.224-1.342 0-.832.656-1.444 1.547-1.444.543 0 1.043.186 1.459.553l-.51.656z" fill="#FFF" fill-rule="nonzero"/>
        <path d="M9.8 30.742h23.59m72.848 0h23.59" stroke="#FFF" stroke-width=".542"/>
    </g>
</svg>
