<svg width="160" height="99" xmlns="http://www.w3.org/2000/svg">
    <g fill="none" fill-rule="evenodd">
        <path d="M72.92 55.705c.973-.117 2.469-.21 3.559-.165v7.614c0 1.956.522 3.112 2.398 3.112 2.232 0 3.8-2.17 3.8-5.117V55.54h1.492v10.513c.57.094 1.376.188 2.065.236v.799c-.974.117-2.468.212-3.582.164 0-.799.071-1.954.214-2.708l-.047-.024c-.665 1.792-2.185 2.944-4.275 2.944-2.73 0-3.559-1.67-3.559-3.768V56.74a24.003 24.003 0 0 0-2.065-.236zm25.967-.353c.736 0 1.591.095 2.35.26l-.071 1.317c-.783-.236-1.661-.401-2.493-.401-1.829 0-2.778.778-2.778 2.005 0 3.017 5.98 1.225 5.98 5.28 0 2.005-1.8 3.627-4.84 3.627-.904 0-1.804-.07-2.514-.235l.046-1.41c.758.21 1.73.375 2.657.375 1.83 0 3.112-.801 3.112-2.145 0-2.994-5.958-1.108-5.958-5.328 0-1.933 1.588-3.345 4.51-3.345zm30.625 0c3.205 0 4.531 2.19 4.531 4.714 0 .137 0 .355-.027.614l-.02.16h-7.999c-.143 3.798 1.305 5.355 4.06 5.355 1.14 0 2.361-.282 3.213-.66l.205-.096.143 1.32c-1.067.423-2.349.681-3.822.681-3.514 0-5.387-1.882-5.387-6.01 0-3.486 1.896-6.078 5.103-6.078zm-61.505.048c.973 0 1.97.14 2.848.399l-.166 1.318a7.648 7.648 0 0 0-2.848-.565c-2.659 0-3.988 2.004-3.988 4.95 0 2.523.759 4.622 3.775 4.622 1.115 0 2.302-.284 3.132-.708l.143 1.296c-.784.305-2.09.682-3.585.682-2.492 0-5.053-1.059-5.053-5.585 0-3.89 1.944-6.41 5.742-6.41zm35.764.305c.95-.117 2.443-.21 3.533-.165v11.712h-1.469V56.74a24.013 24.013 0 0 0-2.064-.236zm-16.352 0c.95-.117 2.445-.21 3.534-.165v11.712h-1.469V56.74a24.069 24.069 0 0 0-2.065-.236zm30.666-.376c2.706 0 3.535 1.67 3.535 3.768v8.155h-1.47V59.64c0-1.957-.545-3.112-2.397-3.112-2.256 0-3.824 2.169-3.824 5.116v5.608h-1.468V56.74a24.036 24.036 0 0 0-2.065-.236v-.799c.949-.118 2.443-.212 3.557-.165 0 .8-.072 1.978-.19 2.709l.024.024c.688-1.791 2.208-2.944 4.298-2.944zm11.332 1.153c-1.693 0-2.9 1.158-3.285 2.993l-.04.214h6.364c.047-1.887-1.116-3.207-3.04-3.207zM90.286 51.18c.592 0 1.023.448 1.023 1.06 0 .589-.498 1.059-1.09 1.059-.569 0-1.066-.47-1.066-1.06 0-.587.564-1.059 1.133-1.059zm16.35 0c.593 0 1.025.448 1.025 1.06 0 .589-.5 1.059-1.09 1.059-.569 0-1.068-.47-1.068-1.06 0-.587.565-1.059 1.134-1.059zm31.458-17.48c.974-.119 2.467-.212 3.557-.165v7.612c0 1.957.523 3.112 2.4 3.112 2.232 0 3.8-2.17 3.8-5.116v-5.608h1.492v10.512a24 24 0 0 0 2.064.235v.8c-.973.118-2.467.211-3.581.165 0-.8.071-1.955.213-2.71l-.047-.022c-.664 1.792-2.184 2.943-4.274 2.943-2.73 0-3.56-1.67-3.56-3.769v-6.955a23.323 23.323 0 0 0-2.064-.236zm-49.224-.354c2.754 0 5.149 1.506 5.149 5.868 0 3.418-2.086 6.22-5.552 6.22-3.136 0-5.127-1.906-5.127-6.008 0-3.277 1.991-6.08 5.53-6.08zm25.885 0c.736 0 1.592.095 2.35.259l-.071 1.318c-.782-.236-1.662-.4-2.494-.4-1.828 0-2.778.776-2.778 2.003 0 1.443 1.368 1.787 2.796 2.196l.39.114c1.428.43 2.796 1.032 2.796 2.971 0 2.004-1.801 3.627-4.842 3.627-.903 0-1.804-.07-2.514-.234l.047-1.412c.758.211 1.73.377 2.657.377 1.829 0 3.112-.801 3.112-2.146 0-2.994-5.958-1.108-5.958-5.328 0-1.934 1.587-3.345 4.509-3.345zm17.126 0c3.205 0 4.531 2.19 4.531 4.713 0 .137 0 .356-.028.616l-.02.16h-7.999c-.142 3.797 1.306 5.353 4.062 5.353 1.14 0 2.36-.28 3.212-.658l.205-.097.141 1.32c-1.065.423-2.348.681-3.82.681-3.514 0-5.387-1.883-5.387-6.009 0-3.488 1.897-6.079 5.103-6.079zm-54.791-.023c2.208 0 3.463 1.129 3.463 3.792v8.13h-1.492v-7.611c0-1.886-.451-3.112-2.28-3.112-1.923 0-3.729 1.933-3.729 5.163v5.56H71.56V37.61c0-1.673-.333-3.088-2.28-3.088-2.09 0-3.753 2.122-3.753 5.163v5.56h-1.469v-10.51a23.312 23.312 0 0 0-2.064-.237v-.8c.95-.117 2.444-.21 3.558-.164 0 .8-.072 1.954-.19 2.71l.048.022c.664-1.791 2.23-2.943 4.202-2.943 2.824 0 3.297 2.047 3.297 2.896.429-1.107 1.687-2.896 4.18-2.896zm26.328 0c2.706 0 3.535 1.67 3.535 3.769v8.154h-1.468v-7.612c0-1.957-.548-3.112-2.4-3.112-2.255 0-3.823 2.168-3.823 5.116v5.608h-1.469V34.734a23.303 23.303 0 0 0-2.064-.236v-.8c.949-.117 2.444-.21 3.557-.164 0 .8-.07 1.978-.19 2.71l.024.022c.689-1.791 2.209-2.943 4.298-2.943zm16.532.377c.95-.119 2.445-.212 3.535-.165v11.71h-1.469v-10.51a23.417 23.417 0 0 0-2.066-.237zm35.802 2.92c.45-1.745 1.684-3.58 4.248-3.274l-.048 1.436c-2.705-.424-3.988 1.72-3.988 5.799v4.665h-1.469V34.735c-.569-.095-1.376-.19-2.064-.236v-.8c.95-.118 2.443-.211 3.558-.165 0 .824-.096 2.025-.285 3.063zm-67.049-2.075c-1.946 0-3.798 1.485-3.798 4.762 0 3.113 1.377 4.904 3.823 4.904 1.947 0 3.75-1.485 3.75-4.926 0-2.948-1.28-4.74-3.775-4.74zm43.082-.07c-1.692 0-2.9 1.16-3.284 2.993l-.04.214h6.364c.048-1.886-1.116-3.207-3.04-3.207zm-9.17-5.301c.591 0 1.023.448 1.023 1.06 0 .588-.499 1.058-1.09 1.058-.569 0-1.068-.47-1.068-1.059 0-.588.566-1.06 1.134-1.06z" fill="#FFF" fill-rule="nonzero"/>
        <path d="M0 21.88h54.701v54.701H0z"/>
        <path d="M29.936 37.835c-2.62 3.172-3.782 8.41-4.726 13.626-2.54 2.585-4.136 4.876-4.497 6.471-.165.885-.012 1.684.417 2.194.273.325.641.504 1.036.504 1.487 0 2.59-1.57 3.02-4.288.252-1.226.482-2.52.71-3.802l.08-.476c0-.049.01-.105.024-.164 3.05-3.074 7.42-6.56 11.835-9.473-5.515 6.021-9.04 12.87-9.568 18.726-.298 3.662.728 7.046 2.816 9.286 1.414 1.516 3.19 2.397 5.044 2.51-1.335 1.351-3.545 1.77-5.275.893-1.978-1.003-5.216-1.003-7.194 0-1.979 1.003-4.585.311-5.792-1.536-1.207-1.849-4.011-3.451-6.232-3.562-2.22-.11-4.128-1.999-4.24-4.197-.036-.724-.237-1.512-.556-2.284 2.182-.965 4.558-3.032 7.188-6.244.13.01.264.01.385.01 4.768 0 7.16-2.485 7.364-4.797.074-.876-.148-1.638-.642-2.202a2.641 2.641 0 0 0-1.362-.815c2.298-3.089 6.158-7.764 10.165-10.38zm17.91-.912c.663 1.18 1.574 2.236 2.553 2.86 1.872 1.192 2.572 3.766 1.557 5.72-1.017 1.955-1.017 5.154 0 7.107 1.015 1.956.315 4.53-1.557 5.723-1.872 1.192-3.495 3.961-3.606 6.154-.113 2.194-2.025 4.079-4.251 4.189-2.141.106-4.822 1.588-6.101 3.342l-.092.003-.116.002c-1.774 0-3.503-.805-4.87-2.268-1.934-2.068-2.88-5.201-2.596-8.594.629-6.611 5.059-14.359 11.793-20.679 2.16-1.265 4.339-2.358 6.292-3.155.344-.13.667-.261.969-.393l.025-.01zm-11.43-11.21c1.196 1.858 3.978 3.47 6.182 3.58 2.203.112 4.095 2.01 4.207 4.222.016.332.067.677.147 1.028-.494.253-1.027.571-1.59.962a36.435 36.435 0 0 0-5.18 4.227c-5 2.979-10.29 7-14.055 10.666.07-.373.14-.745.212-1.115l.148-.739c1.18-5.76 2.905-10.981 6.865-12.487.453-.114.905-.19 1.217-.217l.396.031.315-.732-.423-.145c-1.967-.708-5.236-1.552-9.64-1.552-8.272 0-18.025 5.971-18.696 13.96-.361 4 2.546 7.766 6.45 8.524-2.412 2.9-4.558 4.757-6.488 5.612-.663-1.286-1.622-2.455-2.658-3.127-1.853-1.2-2.545-3.796-1.54-5.767 1.006-1.968 1.006-5.192 0-7.161-1.005-1.97-.313-4.564 1.54-5.766 1.853-1.2 3.459-3.993 3.57-6.202.11-2.212 2.003-4.11 4.206-4.222 2.125-.106 4.787-1.609 6.048-3.383l.134-.198c1.198-1.86 3.784-2.554 5.747-1.544 1.963 1.009 5.175 1.009 7.138 0 1.963-1.01 4.55-.315 5.747 1.544zM25.07 52.876c-.203 1.096-.412 2.21-.639 3.261-.333 2.107-1.26 3.577-2.254 3.577a.626.626 0 0 1-.474-.231c-.274-.317-.352-.878-.21-1.51.236-1.192 1.495-2.983 3.577-5.097zm-5.902-4.102c.526.05.987.27 1.312.632.369.41.534.97.477 1.62-.172 1.935-2.237 4.012-6.371 4.13a107.584 107.584 0 0 0 3.579-4.939c.311-.465.645-.953 1.003-1.443zm5.957-14.587c3.3 0 5.88.49 7.695 1.015-5.15 1.503-10.54 7.78-14.217 12.89-.729.064-1.48.37-2.13.872l-.239.184.44.738.3-.252c.261-.22.567-.393.896-.51a32.5 32.5 0 0 0-.556.813c-1.407 2.061-2.644 3.77-3.778 5.219-1.727-.196-3.326-1.082-4.517-2.51-1.237-1.483-1.857-3.379-1.703-5.204.668-7.586 9.953-13.255 17.809-13.255zm24.418.456c.06 0 .107.003.143.007-.211.294-1.13 1.017-3.134 1.877-.873.363-1.807.8-2.792 1.307a34.96 34.96 0 0 1 2.135-1.579c1.668-1.19 3.008-1.612 3.648-1.612z" fill="#FFF" fill-rule="nonzero"/>
    </g>
</svg>
