<svg xmlns="http://www.w3.org/2000/svg" width="32" height="32" viewBox="0 0 32 32">
    <g fill="none" fill-rule="evenodd">
        <g>
            <g>
                <g>
                    <g>
                        <g>
                            <g>
                                <path d="M0 0H32V32H0z" transform="translate(-750 -660) translate(332 595) translate(0 35) translate(20 20) translate(388) translate(10 10)"/>
                                <path fill="#9D9D9C" fill-rule="nonzero" d="M26.667 3.556c1.963 0 3.555 1.591 3.555 3.555V24.89c0 1.964-1.592 3.555-3.555 3.555H5.333c-1.963 0-3.555-1.591-3.555-3.555V7.11c0-1.964 1.592-3.555 3.555-3.555zm0 1.777H5.333c-.982 0-1.777.796-1.777 1.778V24.89c0 .982.795 1.778 1.777 1.778h21.334c.982 0 1.777-.796 1.777-1.778V7.11c0-.982-.795-1.778-1.777-1.778zM11.556 18.667l.103.006c.442.051.785.427.785.883v3.555H16l.104.006c.442.051.785.427.785.883 0 .49-.398.889-.889.889h-3.95l-.132-.006c-.73-.07-1.251-.724-1.251-1.463v-3.864l.006-.104c.051-.442.427-.785.883-.785zm13.333 0c.456 0 .831.343.883.785l.006.104v3.864c0 .74-.522 1.392-1.252 1.463l-.13.006h-3.952c-.49 0-.888-.398-.888-.889 0-.456.343-.832.785-.883l.103-.006H24v-3.555c0-.456.343-.832.785-.883l.104-.006zM18.667 16c1.472 0 2.666 1.194 2.666 2.667 0 1.472-1.194 2.666-2.666 2.666-1.473 0-2.667-1.194-2.667-2.666C16 17.194 17.194 16 18.667 16zM16 10.667c.49 0 .889.398.889.889 0 .455-.343.831-.785.882l-.104.006h-3.556V16c0 .456-.343.832-.785.883l-.103.006c-.456 0-.832-.343-.883-.785L10.667 16v-3.865c0-.739.521-1.392 1.251-1.462l.131-.006H16zm8.395 0l.131.006c.73.07 1.252.723 1.252 1.462V16l-.006.104c-.052.442-.427.785-.883.785l-.104-.006C24.343 16.832 24 16.456 24 16v-3.556h-3.556l-.103-.006c-.442-.05-.785-.427-.785-.882 0-.491.398-.89.888-.89h3.951z" transform="translate(-750 -660) translate(332 595) translate(0 35) translate(20 20) translate(388) translate(10 10)"/>
                            </g>
                        </g>
                    </g>
                </g>
            </g>
        </g>
    </g>
</svg>
